<?xml version="1.0" encoding="iso-8859-1"?>
<!-- Uploaded to: SVG Repo, www.svgrepo.com, Generator: SVG Repo Mixer Tools -->
<svg fill="#000000" height="800px" width="800px" version="1.1" id="Layer_1" xmlns="http://www.w3.org/2000/svg" xmlns:xlink="http://www.w3.org/1999/xlink" 
	 viewBox="0 0 512 512" xml:space="preserve">
<path d="M506.724,237.03c-6.234-5.616-233.447-210.308-240.045-216.251c-6.069-5.468-15.289-5.468-21.358,0
	C236.261,28.94,15.261,228.034,5.276,237.03c-6.547,5.898-7.072,15.986-1.174,22.533c5.897,6.547,15.987,7.072,22.533,1.174
	l69.084-62.235V397.82H65.773c-8.811,0-15.955,7.143-15.955,15.955c0,8.811,7.143,15.955,15.955,15.955
	c8.119,0,167.047-0.003,174.273-0.003v49.641c0,8.811,7.143,15.955,15.955,15.955c8.811,0,15.955-7.143,15.955-15.955v-49.641
	c7.334,0,166.388,0.003,174.273,0.003c8.811,0,15.955-7.144,15.955-15.955c0-8.811-7.143-15.955-15.955-15.955h-29.947V198.501
	l69.084,62.236c6.547,5.898,16.634,5.371,22.533-1.174C513.796,253.016,513.271,242.928,506.724,237.03z M256,382.079
	c-25.003,0-45.345-20.341-45.345-45.345c0-25.002,20.341-45.344,45.345-45.344s45.345,20.341,45.345,45.344
	C301.345,361.738,281.003,382.079,256,382.079z M256,276.888c-37.752,0-68.465-30.713-68.465-68.465s30.713-68.466,68.465-68.466
	s68.465,30.714,68.465,68.466S293.752,276.888,256,276.888z"/>
</svg>